<?xml version="1.0" encoding="iso-8859-1"?>
<!-- Uploaded to: SVG Repo, www.svgrepo.com, Generator: SVG Repo Mixer Tools -->
<svg height="800px" width="800px" version="1.1" id="Layer_1" xmlns="http://www.w3.org/2000/svg" xmlns:xlink="http://www.w3.org/1999/xlink" 
	 viewBox="0 0 496.162 496.162" xml:space="preserve">
<path style="fill:#48A1AF;" d="M248.077,0C111.072,0,0.002,111.062,0.002,248.083c0,137.005,111.07,248.079,248.075,248.079
	c137.013,0,248.083-111.074,248.083-248.079C496.16,111.062,385.09,0,248.077,0z"/>
<path style="fill:#17474C;" d="M325.714,288.252c-5.573-27.986-17.11-41.976-38.218-41.976h-75.643
	c-21.115,0-31.059,19.25-38.227,41.976c-7.167,22.75-15.921,113.699-15.921,113.699c0,23.185,17.111,41.983,38.218,41.983H300.23
	c21.115,0,38.226-18.799,38.226-41.983C338.456,401.952,331.288,316.247,325.714,288.252z"/>
<path style="fill:#0E2C2D;" d="M248.257,246.055l-23.497,0.222h-12.906c-21.115,0-31.059,19.25-38.227,41.976
	c-7.167,22.75-15.921,113.699-15.921,113.699c0,23.185,17.111,41.983,38.218,41.983l53,0.12L248.257,246.055z"/>
<path style="fill:#E9C29C;" d="M294.615,401.972l5.615,41.963c21.115,0,38.226-18.799,38.226-41.983L294.615,401.972z"/>
<path style="fill:#29636D;" d="M325.714,288.252c-5.573-27.986-17.11-41.976-38.218-41.976h-13.741l20.9,155.684l43.801-0.009
	C338.456,401.952,331.288,316.247,325.714,288.252z"/>
<path style="fill:#E9C29C;" d="M157.706,401.952c0,23.185,17.111,41.983,38.218,41.983l7.896-41.855L157.706,401.952z"/>
<path style="fill:#29636D;" d="M211.853,246.277c-21.115,0-31.059,19.25-38.227,41.976c-7.167,22.75-15.921,113.699-15.921,113.699
	l46.113,0.128l20.94-155.853L211.853,246.277z"/>
<polygon style="fill:#FFFFFF;" points="254.847,262.445 248.653,256.203 246.081,256.338 241.315,262.445 223.901,400.182 
	247.155,421.474 272.261,400.182 "/>
<g>
	<polygon style="fill:#8DD3D5;" points="256.55,275.948 237.654,291.414 236.519,300.368 257.471,283.216 	"/>
	<polygon style="fill:#8DD3D5;" points="259.15,296.513 234.455,316.732 233.32,325.685 260.075,303.781 	"/>
	<polygon style="fill:#8DD3D5;" points="261.754,317.072 231.253,342.042 230.118,350.989 262.675,324.346 	"/>
	<polygon style="fill:#8DD3D5;" points="264.354,337.644 228.051,367.352 226.919,376.306 265.276,344.904 	"/>
	<polygon style="fill:#8DD3D5;" points="266.955,358.208 224.849,392.663 223.901,400.182 224.822,400.712 267.869,365.482 	"/>
	<polygon style="fill:#8DD3D5;" points="269.555,378.774 233.018,408.618 237.783,412.922 270.48,386.041 	"/>
</g>
<path style="fill:#6FC5BC;" d="M247.814,247.67c-6.227,0-11.282,5.113-11.282,11.417c0,6.317,5.055,11.429,11.282,11.429
	c6.231,0,11.282-5.112,11.282-11.429C259.096,252.783,254.045,247.67,247.814,247.67z"/>
<path style="fill:#E9C29C;" d="M248.081,88.983c-40.464,0-73.255,32.795-73.255,73.252c0,40.463,32.791,73.259,73.255,73.259
	c40.46,0,73.256-32.796,73.256-73.259C321.336,121.779,288.54,88.983,248.081,88.983z"/>
<path style="fill:#492A15;" d="M248.081,88.983c-40.464,0-73.255,32.795-73.255,73.252c0,0,30.204-2.135,57.558-14.501
	c28.369-12.832,39.005-30.447,39.005-30.447l49.948,44.948C321.336,121.779,288.54,88.983,248.081,88.983z"/>
<g>
	<path style="fill:#343433;" d="M226.125,162.514c-5.544,0-10.037,4.752-10.037,10.605s4.493,10.602,10.037,10.602
		c5.541,0,10.034-4.749,10.034-10.602S231.666,162.514,226.125,162.514z"/>
	<path style="fill:#343433;" d="M269.615,162.514c-5.541,0-10.031,4.752-10.031,10.605s4.49,10.602,10.031,10.602
		c5.544,0,10.041-4.749,10.041-10.602S275.159,162.514,269.615,162.514z"/>
</g>
<g>
	<path style="fill:#FFFFFF;" d="M272.752,164.86c-2.209,0-4.008,1.9-4.008,4.242c0,2.339,1.799,4.239,4.008,4.239
		c2.219,0,4.015-1.9,4.015-4.239C276.767,166.76,274.971,164.86,272.752,164.86z"/>
	<path style="fill:#FFFFFF;" d="M229.147,164.86c-2.213,0-4.008,1.9-4.008,4.242c0,2.339,1.795,4.239,4.008,4.239
		c2.224,0,4.019-1.9,4.019-4.239C233.165,166.76,231.371,164.86,229.147,164.86z"/>
</g>
<g>
	<path style="fill:#492A15;" d="M243.898,190.727c-5.645-2.081-12.901-0.573-18.318,7.674c-5.146,7.833-15.297,2.386-15.131-2.843
		c0.154-4.838,5.759-2.946,4.686,0.203c0,0,1.458-2.046,0.613-3.889c-2.377-5.187-10.291-1.306-9.754,5.759
		c0,0,0.532,14.67,21.422,15.361c5.444,0.182,12.834-0.998,18.748-7.527C250.249,200.957,249.137,192.657,243.898,190.727z"/>
	<path style="fill:#492A15;" d="M280.412,191.872c-0.844,1.843,0.615,3.889,0.615,3.889c-1.076-3.149,4.531-5.041,4.686-0.203
		c0.167,5.229-9.984,10.675-15.131,2.843c-5.417-8.247-12.673-9.754-18.318-7.674c-5.238,1.93-6.35,10.23-2.266,14.739
		c5.914,6.529,13.304,7.708,18.746,7.527c20.893-0.691,21.424-15.361,21.424-15.361
		C290.705,190.566,282.789,186.685,280.412,191.872z"/>
</g>
<path style="fill:#E0B500;" d="M248.098,51.521c-78.872,0-59.299,84.496-59.299,84.496h118.607
	C307.407,136.017,326.97,51.521,248.098,51.521z"/>
<g>
	<path style="fill:#EDC92C;" d="M188.799,136.017h58.941l0.357-84.496C169.226,51.521,188.799,136.017,188.799,136.017z"/>
	<path style="fill:#EDC92C;" d="M248.1,49.388c-21.547,0-16.199,81.962-16.199,81.962h32.402
		C264.303,131.35,269.648,49.388,248.1,49.388z"/>
</g>
<path style="fill:#EFD050;" d="M231.901,131.35h15.84l0.359-81.962C226.553,49.388,231.901,131.35,231.901,131.35z"/>
<path style="fill:#DBB626;" d="M248.081,125.726c-43.105,0-78.049-8.526-78.049,3.285s34.943,17.258,78.049,17.258
	s78.05-5.447,78.05-17.258S291.186,125.726,248.081,125.726z"/>
</svg>