<svg version="1.1" id="icons" xmlns="http://www.w3.org/2000/svg" x="0" y="0" viewBox="0 0 64 64" style="enable-background:new 0 0 64 64" xml:space="preserve"><style>.st0{display:none}.st1{fill:none;stroke:#414042;stroke-miterlimit:10;stroke-dasharray:2}.st1,.st2{display:inline}.st3{fill:none;stroke:#414042;stroke-miterlimit:10}.st6{fill:#f5ab35}.st6,.st7,.st8{display:inline}.st7{fill:none;stroke:#414042;stroke-miterlimit:10}.st8{fill:#29a189}.st10,.st11,.st9{display:inline;fill:#5edfc5}.st10,.st11{fill:#36d7b7}.st11{fill:#f7bc5d}.st12,.st13,.st14{display:inline;fill:#fff}.st13,.st14{fill:#f1f2f2}.st14{fill:#e6e7e8}.st16,.st17,.st18{display:inline;fill:#86e7d4}.st17,.st18{fill:#d1d3d4}.st18{fill:#6d6e71}.st19{fill:#36d7b7}.st20{fill:#a7a9ac}.st21{fill:#5edfc5}.st23{fill:#e6e7e8}.st24{fill:#d1d3d4}.st25{fill:#f1f2f2}.st26{fill:#86e7d4}.st27{fill:#f5ab35}.st29,.st30,.st31{display:inline;fill:#bcbec0}.st30,.st31{fill:#f9cd86}.st31{fill:#414042}.st32{fill:#f9cd86}.st34{fill:#fff}.st35{fill:#414042}.st36{fill:none;stroke:#bcbec0;stroke-linecap:round;stroke-miterlimit:10}.st38{fill:#f7bc5d}.st43,.st44{fill:none;stroke-miterlimit:10}.st43{stroke:#414042;stroke-linecap:round}.st44{stroke:#f5ab35}.st44,.st45,.st46{display:inline}.st45{fill:none;stroke:#414042;stroke-linecap:round;stroke-miterlimit:10}.st46{opacity:.26;fill:#231f20}.st50{fill:none;stroke:#bcbec0;stroke-miterlimit:10}</style><g id="XMLID_811_"><path id="XMLID_809_" class="st38" d="M50.1 27v15.1h-1.9v7.4c0 .3-.3.4-.5.2l-6.3-7.6h-19V27h27.7z"/><path id="XMLID_807_" class="st3" d="M46.8 30.9H26.6"/><path id="XMLID_806_" class="st3" d="M46.8 34.2H26.6"/><path id="XMLID_800_" class="st3" d="M46.8 37.6h-12"/><path id="XMLID_805_" class="st19" d="M13.9 16.3V32h2v7.7c0 .3.3.4.5.2L23 32h19.8V16.3H13.9z"/><path id="XMLID_803_" class="st3" d="M17.4 20.3h21"/><path id="XMLID_804_" class="st3" d="M16.4 12.2h8.8"/><path id="XMLID_808_" class="st3" d="M31.4 12.2h-4.2"/><path id="XMLID_810_" class="st3" d="M35.7 14.8H23.5"/><path id="XMLID_802_" class="st3" d="M17.4 23.8h21"/><path id="XMLID_801_" class="st3" d="M17.4 27.3h12.4"/><path id="XMLID_817_" class="st3" d="M40.3 44.5H29.4"/><path id="XMLID_818_" class="st3" d="M42.2 46.9H38"/><path id="XMLID_819_" class="st3" d="M25.2 46.9h11"/><path id="XMLID_822_" class="st35" d="M18.6 49.1h-1.4v-.7c0-.3 0-.6.1-.7.1-.2.2-.4.5-.6l.9-.9c.2-.2.3-.4.3-.7s-.1-.5-.3-.7c-.2-.2-.4-.3-.7-.3s-.6.1-.8.3c-.2.2-.3.4-.4.8h-1.5c.1-.7.4-1.3.8-1.7.5-.4 1.1-.6 1.8-.6s1.3.2 1.7.6c.4.4.7.9.7 1.6 0 .5-.1.9-.4 1.2-.2.2-.3.3-.3.4l-.3.3-.3.3-.2.2c-.1.2-.2.4-.2.7v.5zm-.6 2.7c-.3 0-.5-.1-.7-.3-.2-.2-.3-.4-.3-.6 0-.2.1-.5.3-.6.2-.2.4-.3.6-.3s.5.1.7.3c.2.2.3.4.3.6 0 .2-.1.5-.3.6-.1.2-.4.3-.6.3z"/><path id="XMLID_825_" class="st35" d="M47.7 21.2c-.2 0-.5-.1-.6-.3-.2-.2-.3-.4-.3-.6 0-.2.1-.5.3-.6.2-.2.4-.3.6-.3.2 0 .5.1.6.3s.3.4.3.6c0 .2-.1.5-.3.6-.1.3-.4.3-.6.3zm-.8-8.6h1.7v1.5l-.4 4.3h-1l-.4-4.3v-1.5z"/></g></svg>