<svg enable-background="new 0 0 64 64" viewBox="0 0 64 64" xmlns="http://www.w3.org/2000/svg"><path d="m50.1 27v15.1h-1.9v7.4c0 .3-.3.4-.5.2l-6.3-7.6h-19v-15.1z" fill="#f7bc5d"/><path d="m46.8 30.9h-20.2" fill="none" stroke="#414042" stroke-miterlimit="10"/><path d="m46.8 34.2h-20.2" fill="none" stroke="#414042" stroke-miterlimit="10"/><path d="m46.8 37.6h-12" fill="none" stroke="#414042" stroke-miterlimit="10"/><path d="m13.9 16.3v15.7h2v7.7c0 .3.3.4.5.2l6.6-7.9h19.8v-15.7z" fill="#36d7b7"/><g fill="none" stroke="#414042" stroke-miterlimit="10"><path d="m17.4 20.3h21"/><path d="m16.4 12.2h8.8"/><path d="m31.4 12.2h-4.2"/><path d="m35.7 14.8h-12.2"/><path d="m17.4 23.8h21"/><path d="m17.4 27.3h12.4"/><path d="m40.3 44.5h-10.9"/><path d="m42.2 46.9h-4.2"/><path d="m25.2 46.9h11"/></g><path d="m18.6 49.1h-1.4v-.7c0-.3 0-.6.1-.7.1-.2.2-.4.5-.6l.9-.9c.2-.2.3-.4.3-.7s-.1-.5-.3-.7-.4-.3-.7-.3-.6.1-.8.3-.3.4-.4.8h-1.5c.1-.7.4-1.3.8-1.7.5-.4 1.1-.6 1.8-.6s1.3.2 1.7.6.7.9.7 1.6c0 .5-.1.9-.4 1.2-.2.2-.3.3-.3.4l-.3.3-.3.3-.2.2c-.1.2-.2.4-.2.7zm-.6 2.7c-.3 0-.5-.1-.7-.3s-.3-.4-.3-.6.1-.5.3-.6c.2-.2.4-.3.6-.3s.5.1.7.3.3.4.3.6-.1.5-.3.6c-.1.2-.4.3-.6.3z" fill="#414042"/><path d="m47.7 21.2c-.2 0-.5-.1-.6-.3-.2-.2-.3-.4-.3-.6s.1-.5.3-.6c.2-.2.4-.3.6-.3s.5.1.6.3.3.4.3.6-.1.5-.3.6c-.1.3-.4.3-.6.3zm-.8-8.6h1.7v1.5l-.4 4.3h-1l-.4-4.3v-1.5z" fill="#414042"/></svg>